<svg xmlns="http://www.w3.org/2000/svg" width="900" height="160" viewBox="0 0 900 160" role="img" aria-labelledby="t">
  <title id="t">Pipeline Anne: Describe Analyze Plan Execute Verify Deliver</title>
  <defs>
    <style>
      .lab { font-family: Segoe UI, system-ui, sans-serif; font-size: 13px; font-weight: 700; fill: #334155; text-anchor: middle; }
      .emoji { font-size: 28px; text-anchor: middle; }
    </style>
  </defs>
  <rect width="900" height="160" rx="20" fill="#fffaf5" stroke="#fed7aa" stroke-width="2"/>

  <!-- connectors -->
  <g stroke="#fb923c" stroke-width="3" stroke-dasharray="6 6" fill="none">
    <line x1="120" y1="70" x2="180" y2="70"/>
    <line x1="260" y1="70" x2="320" y2="70"/>
    <line x1="400" y1="70" x2="460" y2="70"/>
    <line x1="540" y1="70" x2="600" y2="70"/>
    <line x1="680" y1="70" x2="740" y2="70"/>
  </g>

  <!-- steps -->
  <g transform="translate(50,28)">
    <circle cx="40" cy="42" r="36" fill="#ffedd5"/>
    <text x="40" y="52" class="emoji">=�</text>
    <text x="40" y="100" class="lab">Describe</text>
  </g>
  <g transform="translate(190,28)">
    <circle cx="40" cy="42" r="36" fill="#ccfbf1"/>
    <text x="40" y="52" class="emoji">=
</text>
    <text x="40" y="100" class="lab">Analyze</text>
  </g>
  <g transform="translate(330,28)">
    <circle cx="40" cy="42" r="36" fill="#ffedd5"/>
    <text x="40" y="52" class="emoji">=�</text>
    <text x="40" y="100" class="lab">Plan DAG</text>
  </g>
  <g transform="translate(470,28)">
    <circle cx="40" cy="42" r="36" fill="#ccfbf1"/>
    <text x="40" y="52" class="emoji">�</text>
    <text x="40" y="100" class="lab">Execute</text>
  </g>
  <g transform="translate(610,28)">
    <circle cx="40" cy="42" r="36" fill="#ffedd5"/>
    <text x="40" y="52" class="emoji"></text>
    <text x="40" y="100" class="lab">Verify</text>
  </g>
  <g transform="translate(750,28)">
    <circle cx="40" cy="42" r="36" fill="#ccfbf1"/>
    <text x="40" y="52" class="emoji"><�</text>
    <text x="40" y="100" class="lab">Deliver</text>
  </g>
</svg>
